<svg width="226" height="193" viewBox="0 0 226 193" fill="none" xmlns="http://www.w3.org/2000/svg">
<path d="M103.808 136H84.656V101.728H103.808V105.52H88.976V116.224H102.944V119.968H88.976V132.208H103.808V136ZM138.496 136H133.456L115.12 107.536H114.928C114.992 108.272 115.04 109.152 115.072 110.176C115.136 111.168 115.184 112.24 115.216 113.392C115.28 114.512 115.312 115.664 115.312 116.848V136H111.328V101.728H116.32L134.608 130.096H134.8C134.768 129.584 134.72 128.816 134.656 127.792C134.624 126.768 134.576 125.648 134.512 124.432C134.48 123.216 134.464 122.096 134.464 121.072V101.728H138.496V136ZM158.645 136H154.325V105.52H143.621V101.728H169.301V105.52H158.645V136ZM195.973 136L191.845 125.392H178.261L174.181 136H169.812L183.205 101.584H187.093L200.437 136H195.973ZM186.709 111.184C186.613 110.928 186.453 110.464 186.229 109.792C186.005 109.12 185.781 108.432 185.557 107.728C185.365 106.992 185.205 106.432 185.077 106.048C184.917 106.688 184.741 107.344 184.549 108.016C184.389 108.656 184.213 109.248 184.021 109.792C183.861 110.336 183.717 110.8 183.589 111.184L179.701 121.552H190.549L186.709 111.184ZM205.125 136V101.728H209.445V132.16H224.421V136H205.125Z" fill="white"/>
<path d="M37.632 44.608C45.2267 44.608 51.456 45.5893 56.32 47.552C61.2693 49.4293 64.9387 52.288 67.328 56.128C69.7173 59.968 70.912 64.7893 70.912 70.592C70.912 75.456 70.016 79.5093 68.224 82.752C66.432 85.9947 64.128 88.5973 61.312 90.56C58.5813 92.4373 55.68 93.9307 52.608 95.04L77.696 136H64.256L42.112 98.24H23.936V136H12.416V44.608H37.632ZM36.992 54.592H23.936V88.512H37.632C45.056 88.512 50.4747 87.0613 53.888 84.16C57.3013 81.1733 59.008 76.8213 59.008 71.104C59.008 67.0933 58.1973 63.8933 56.576 61.504C55.04 59.1147 52.6507 57.3653 49.408 56.256C46.1653 55.1467 42.0267 54.592 36.992 54.592Z" fill="white"/>
<path d="M191.28 162.76C191.547 162.76 191.82 162.74 192.1 162.7C192.38 162.647 192.607 162.593 192.78 162.54V163.88C192.593 163.973 192.327 164.047 191.98 164.1C191.633 164.167 191.3 164.2 190.98 164.2C190.42 164.2 189.9 164.107 189.42 163.92C188.953 163.72 188.573 163.38 188.28 162.9C187.987 162.42 187.84 161.747 187.84 160.88V154.64H186.32V153.8L187.86 153.1L188.56 150.82H189.6V153.28H192.7V154.64H189.6V160.84C189.6 161.493 189.753 161.98 190.06 162.3C190.38 162.607 190.787 162.76 191.28 162.76ZM204.247 158.62C204.247 159.513 204.127 160.307 203.887 161C203.66 161.68 203.327 162.26 202.887 162.74C202.46 163.22 201.933 163.587 201.307 163.84C200.693 164.08 200.007 164.2 199.247 164.2C198.54 164.2 197.887 164.08 197.287 163.84C196.687 163.587 196.167 163.22 195.727 162.74C195.287 162.26 194.94 161.68 194.687 161C194.447 160.307 194.327 159.513 194.327 158.62C194.327 157.433 194.527 156.433 194.927 155.62C195.327 154.793 195.9 154.167 196.647 153.74C197.393 153.3 198.28 153.08 199.307 153.08C200.28 153.08 201.133 153.3 201.867 153.74C202.613 154.167 203.193 154.793 203.607 155.62C204.033 156.433 204.247 157.433 204.247 158.62ZM196.147 158.62C196.147 159.46 196.253 160.193 196.467 160.82C196.693 161.433 197.04 161.907 197.507 162.24C197.973 162.573 198.567 162.74 199.287 162.74C200.007 162.74 200.6 162.573 201.067 162.24C201.533 161.907 201.873 161.433 202.087 160.82C202.313 160.193 202.427 159.46 202.427 158.62C202.427 157.767 202.313 157.04 202.087 156.44C201.86 155.84 201.513 155.38 201.047 155.06C200.593 154.727 200 154.56 199.267 154.56C198.173 154.56 197.38 154.92 196.887 155.64C196.393 156.36 196.147 157.353 196.147 158.62ZM215.996 153.28V164H214.556L214.296 162.58H214.216C213.989 162.953 213.696 163.26 213.336 163.5C212.976 163.74 212.583 163.913 212.156 164.02C211.729 164.14 211.283 164.2 210.816 164.2C209.963 164.2 209.243 164.067 208.656 163.8C208.083 163.52 207.649 163.093 207.356 162.52C207.063 161.947 206.916 161.207 206.916 160.3V153.28H208.696V160.18C208.696 161.033 208.889 161.673 209.276 162.1C209.663 162.527 210.263 162.74 211.076 162.74C211.876 162.74 212.503 162.593 212.956 162.3C213.423 161.993 213.749 161.553 213.936 160.98C214.136 160.393 214.236 159.687 214.236 158.86V153.28H215.996ZM224.399 153.08C224.599 153.08 224.813 153.093 225.039 153.12C225.279 153.133 225.486 153.16 225.659 153.2L225.439 154.82C225.266 154.78 225.073 154.747 224.859 154.72C224.659 154.693 224.466 154.68 224.279 154.68C223.866 154.68 223.473 154.767 223.099 154.94C222.726 155.113 222.393 155.36 222.099 155.68C221.806 155.987 221.573 156.36 221.399 156.8C221.239 157.24 221.159 157.733 221.159 158.28V164H219.399V153.28H220.839L221.039 155.24H221.119C221.346 154.84 221.619 154.48 221.939 154.16C222.259 153.827 222.626 153.567 223.039 153.38C223.453 153.18 223.906 153.08 224.399 153.08Z" fill="white"/>
</svg>
